<?xml version="1.0" encoding="utf-8"?>
<!-- Generator: Adobe Illustrator 13.0.0, SVG Export Plug-In . SVG Version: 6.00 Build 14948)  -->
<!DOCTYPE svg PUBLIC "-//W3C//DTD SVG 1.1//EN" "http://www.w3.org/Graphics/SVG/1.1/DTD/svg11.dtd">
<svg version="1.1" id="Your_Icon" xmlns="http://www.w3.org/2000/svg" xmlns:xlink="http://www.w3.org/1999/xlink" x="0px" y="0px"
	 width="100px" height="100px" viewBox="0.06 0.572 100 100" enable-background="new 0.06 0.572 100 100" xml:space="preserve">
<path fill="#FFFFFF" d="M82.419,63.63H59.091l12.248-25.31l2.021-4.183c0.243-0.652,0.463-1.316,0.651-1.992
	c0.595-2.13,0.937-4.366,0.937-6.687c0-13.744-11.146-24.887-24.891-24.887S25.169,11.714,25.169,25.458
	c0,2.32,0.342,4.556,0.937,6.687c0.188,0.676,0.407,1.34,0.65,1.992l2.023,4.182L41.024,63.63H17.698L0.06,100.57h99.999
	L82.419,63.63z M50.059,16.554c4.917,0,8.907,3.988,8.907,8.904c0,4.92-3.989,8.905-8.907,8.905s-8.905-3.987-8.905-8.905
	C41.154,20.542,45.141,16.554,50.059,16.554z M35.931,72.762c4.186,0.569,6.644,3.49,9.655,7.117
	c4.785,5.762,10.74,12.934,26.628,12.934c9.718,0,15.668-1.766,17.727-5.24l4.523,9.471H35.931V72.762z M84,75.129
	c-6.188,0.016-13.086-0.042-16.472-3.42c-1.164-1.164-1.813-2.676-2.016-4.553h14.685L84,75.129z M50.059,82.298l7.327-15.141h6.367
	c0.227,2.354,1.047,4.319,2.529,5.802c3.732,3.725,10.586,3.936,16.893,3.936c0.412,0,0.818,0,1.224,0l0.444-0.002l4.062,8.504
	c-0.057,0.311-0.14,0.619-0.28,0.92c-0.992,2.16-4.646,4.732-16.406,4.732c-15.061,0-20.486-6.531-25.271-12.297
	c-3.065-3.688-5.999-7.156-11.012-7.749v-3.845h6.801L50.059,82.298z M19.922,67.157h14.246v3.729
	c-7.7,0.062-11.178,2.683-13.973,4.802c-1.84,1.394-3.354,2.528-5.692,2.822L19.922,67.157z M13.63,80.334
	c3.448-0.1,5.488-1.621,7.629-3.24c2.718-2.06,5.812-4.381,12.909-4.438v24.387H5.653L13.63,80.334z"/>
</svg>
